<svg width="400" height="400" xmlns="http://www.w3.org/2000/svg">
    <path d="M0 200v200h400V0H0v200M208.01 60.753c11.167 1.737 12.399 2 20.19 4.308 6.533 1.935 8.867 2.776 13.329 4.806 1.611.733 3.119 1.333 3.35 1.333.637 0 10.99 5.516 13.69 7.294 1.303.858 3.013 1.911 3.8 2.339 1.274.693 4.568 3.113 11.909 8.749 2.125 1.632 13.373 12.633 15.726 15.382 1.494 1.746.241 1.115-4.078-2.052-4.249-3.116-12.151-8.103-14.526-9.168-.88-.395-2.05-1.013-2.6-1.374-.986-.647-4.345-2.167-11.4-5.158-3.368-1.428-9.495-3.452-16-5.283-16.424-4.625-44.071-4.979-61.63-.79-5.706 1.362-16.597 4.871-20.466 6.596a597.55 597.55 0 0 1-6.104 2.673c-1.65.709-3.206 1.453-3.458 1.654-.251.201-1.57.905-2.931 1.564-1.36.659-3.674 1.974-5.142 2.922a187.642 187.642 0 0 1-4.469 2.797c-13.379 7.975-29.571 24.578-39.998 41.013-1.312 2.067-2.46 3.833-2.552 3.925-.092.093-2.259-.834-4.815-2.058-2.555-1.224-4.751-2.225-4.878-2.225-.127 0-1.622-.701-3.322-1.559-1.7-.857-4.474-2.133-6.163-2.837-1.827-.76-3.072-1.513-3.072-1.858 0-.66 4.753-9.526 6.404-11.946.6-.88 1.43-2.175 1.844-2.877 3.229-5.48 11.32-15.31 17.552-21.325 5.655-5.458 8.81-8.202 12.955-11.271a491.12 491.12 0 0 0 5.272-3.946c.784-.606 2.044-1.442 2.8-1.858.755-.417 2.363-1.395 3.573-2.174 5.102-3.285 19.746-10.185 24.6-11.591 1.32-.382 4.771-1.416 7.669-2.297 5.96-1.812 18.513-4.048 25.931-4.62 5.336-.411 22.156.157 27.01.912M19.5 114.959c11.762 5.38 25.108 11.567 30.3 14.048 1.54.736 3.97 1.863 5.4 2.506 1.43.642 3.95 1.803 5.6 2.58 1.65.776 4.53 2.079 6.4 2.895 1.87.816 4.055 1.828 4.854 2.248.8.42 1.645.764 1.878.764.515 0 9.674 4.321 25.722 12.134 2.56 1.246 4.782 2.266 4.939 2.266.157 0 1.753.699 3.546 1.552 6.294 2.997 16.077 7.543 17.692 8.222.896.376 2.696 1.718 4 2.98 1.303 1.263 5.069 4.802 8.369 7.865l8.4 7.8c8.291 7.706 9.658 8.973 10.176 9.442 1.836 1.657-.576.714-11.354-4.439a860.67 860.67 0 0 0-9.022-4.217 904.91 904.91 0 0 1-8.6-4.01c-1.76-.839-6.17-2.904-9.8-4.59-3.63-1.686-8.6-4.042-11.045-5.235-2.445-1.194-4.558-2.17-4.694-2.17-.137 0-2.186-.918-4.555-2.04-8.779-4.16-10-4.719-14.306-6.55-2.42-1.029-5.57-2.46-7-3.179-6.853-3.445-19.74-9.613-28.971-13.865-12.04-5.546-13.867-6.634-18.118-10.786a536.5 536.5 0 0 0-7.321-7c-17.126-15.971-17.278-16.148-11.497-13.409a889.462 889.462 0 0 0 9.007 4.188m285.359 4.555c3.84 3.989 4.534 4.828 10.434 12.608 5.145 6.783 5.126 6.29.317 8.247-3.446 1.402-3.324 1.441-4.378-1.376-.451-1.205-1.478-3.496-2.282-5.092-.804-1.596-1.908-3.801-2.453-4.901-1.48-2.988-6.601-11.091-9.733-15.4-1.519-2.09-2.762-3.954-2.763-4.143-.002-.504 6.404 5.43 10.858 10.057m87.941-9.15c0 .201-.585.853-1.3 1.451-1.788 1.493-10.495 9.614-12.479 11.64-.891.91-4.49 4.299-7.996 7.532-6.496 5.989-7.713 6.812-14.225 9.621-4.855 2.095-23.193 10.811-32.613 15.502-1.988.99-4.418 2.077-5.4 2.416-.983.339-4.667 1.991-8.187 3.672-7.596 3.627-9.488 4.514-16.6 7.788a560.537 560.537 0 0 0-10.621 5.05c-2.872 1.41-5.348 2.564-5.501 2.564-.267 0-3.947 1.721-12.933 6.048-2.23 1.073-4.163 1.952-4.295 1.952-.133 0-2.898 1.276-6.146 2.835a9178.855 9178.855 0 0 1-9.104 4.365c-5.151 2.464-5.505 2.897 7.826-9.578 19.119-17.892 18.316-17.184 20.774-18.307.99-.452 4.5-2.081 7.8-3.621 5.729-2.673 9.784-4.541 20.7-9.536 8.277-3.787 11.635-5.436 12.181-5.982.288-.288.928-.642 1.421-.788.494-.145 2.158-.809 3.698-1.475s3.693-1.594 4.784-2.062c1.091-.468 4.295-1.976 7.121-3.351 2.825-1.375 5.309-2.5 5.52-2.5.212 0 2.588-1.063 5.28-2.362a674.744 674.744 0 0 1 9.895-4.655c8.184-3.754 15.936-7.357 20.296-9.433 2.252-1.073 4.189-1.95 4.303-1.95.204 0 6.935-3.145 12.401-5.795 3.053-1.48 3.4-1.586 3.4-1.041M57.677 156.38c.728.43 2.498 1.223 3.934 1.763 1.436.541 4.316 1.827 6.4 2.858 2.084 1.031 4.419 2.108 5.189 2.392 1.36.504 6.004 2.673 14.2 6.633 2.2 1.063 6.79 3.219 10.2 4.79 3.41 1.572 7.64 3.542 9.4 4.379 1.76.837 4.73 2.198 6.6 3.026 1.87.827 3.762 1.738 4.204 2.025.442.286 2.062 1.041 3.6 1.679 1.538.637 4.326 1.887 6.196 2.777 9.983 4.754 12.871 6.098 13.106 6.098.261 0 8.379 3.764 15.094 6.998 1.98.953 4.77 2.274 6.2 2.935 1.43.661 3.427 1.982 4.438 2.935 1.011.952 5.421 5.045 9.8 9.094 4.379 4.049 8.788 8.189 9.798 9.2 1.01 1.011 3.211 3.098 4.892 4.638 1.681 1.54 3.06 2.926 3.064 3.08.013.441-6.754-2.564-18.192-8.08-2.2-1.061-6.79-3.212-10.2-4.779a838.557 838.557 0 0 1-9.8-4.576c-1.98-.949-6.21-2.944-9.4-4.432-3.19-1.488-7.42-3.479-9.4-4.424-1.98-.944-4.59-2.155-5.8-2.69-1.21-.534-3.73-1.701-5.6-2.591-1.87-.891-6.37-3.01-10-4.71l-9.8-4.589-9.4-4.402c-13.234-6.196-12.206-5.539-20.346-13.025C66.749 166.824 55.32 155.6 55.91 155.6c.245 0 1.04.351 1.767.78m285.643.579c-.176.307-2.036 2.152-4.132 4.1a454.664 454.664 0 0 0-7.481 7.141c-2.017 1.98-4.892 4.709-6.387 6.064-1.496 1.354-4.43 4.013-6.52 5.908-2.285 2.071-4.757 3.9-6.2 4.586a1841.116 1841.116 0 0 1-16.6 7.82c-3.63 1.69-8.6 4.052-11.045 5.248-2.445 1.196-4.547 2.174-4.67 2.174-.124 0-2.623 1.149-5.555 2.552a782.332 782.332 0 0 1-10.33 4.839c-2.75 1.257-6.8 3.151-9 4.207a931.45 931.45 0 0 1-9.8 4.604 927.738 927.738 0 0 0-10.288 4.84c-2.468 1.187-4.592 2.158-4.719 2.158-.127 0-2.45 1.08-5.161 2.4-2.711 1.32-5.028 2.4-5.148 2.4-.121 0-2.311.99-4.866 2.2-2.556 1.21-4.787 2.2-4.958 2.2-.17 0-1.264.46-2.429 1.022-1.942.937-3.112 1.055-2.204.222 3.822-3.507 17.699-16.335 19.176-17.727l5.797-5.468c2.614-2.467 4.549-3.924 6.2-4.669 1.32-.595 4.599-2.14 7.288-3.431 2.688-1.292 5.029-2.349 5.201-2.349.172 0 2.518-1.08 5.212-2.4 2.695-1.32 4.994-2.4 5.109-2.4.116 0 1.871-.795 3.9-1.767 4.62-2.214 11.887-5.581 30.89-14.315a659.047 659.047 0 0 0 9.671-4.554c2.459-1.19 4.591-2.164 4.738-2.164.297 0 7.942-3.633 12.591-5.983 1.65-.834 4.62-2.196 6.6-3.027 1.98-.831 5.4-2.354 7.6-3.385 8.98-4.205 7.943-3.785 7.52-3.046M70.782 176.744c6.214 5.739 8.818 8.396 8.817 9 0 .471-.392 3.376-.869 6.456-1.044 6.73-1.292 25.97-.409 31.6.277 1.76.78 5 1.12 7.2 1.313 8.516 1.984 11.181 5.406 21.47.902 2.711 2.07 5.879 2.595 7.04a217.93 217.93 0 0 1 1.969 4.517c2.581 6.132 6.669 13.144 12.713 21.806 1.939 2.778 3.437 5.139 3.329 5.247-.307.307-12.881-12.182-15.182-15.08-1.136-1.43-2.393-2.96-2.794-3.4-.967-1.061-5.872-7.879-6.843-9.512a106.992 106.992 0 0 0-2.227-3.488c-5.111-7.693-10.694-20.579-14.755-34.06-4.392-14.578-5.712-39.796-2.864-54.695.227-1.185.412-2.235.412-2.333 0-.52 1.517.783 9.582 8.232m265.451-.502c1.256 4.518 3.226 16.506 3.813 23.203 1.267 14.451-.677 32.524-5.115 47.555-2.985 10.107-8.675 23.047-13.28 30.2-.779 1.21-1.736 2.78-2.128 3.488-.392.709-1.488 2.329-2.437 3.6a750.934 750.934 0 0 0-3.623 4.912c-10.117 13.848-26.744 27.934-43.063 36.483-26.874 14.076-55.834 18.338-86.445 12.721-7.229-1.327-8.456-1.643-16.555-4.263-7.846-2.538-22.164-9.106-26-11.926-.66-.485-2.1-1.401-3.2-2.036-6.328-3.652-13.708-9.693-22.349-18.297-7.598-7.564-8.514-8.877-3.78-5.414 1.611 1.178 4.009 2.847 5.329 3.708 1.32.861 3.148 2.073 4.063 2.693 2.258 1.531 11.542 6.47 14.51 7.72 1.324.557 3.446 1.488 4.715 2.068 2.319 1.061 11.9 4.269 17.112 5.73 2.689.753 10.414 2.162 18 3.282 5.697.841 24.763.718 30.8-.199 13.062-1.983 16.364-2.735 25.8-5.878 5.332-1.776 15.33-5.926 17.526-7.275.729-.448 2.259-1.263 3.4-1.812 4.108-1.978 15.112-9.29 19.539-12.984a173.873 173.873 0 0 0 4.699-4.127c1.45-1.323 3.086-2.764 3.636-3.203 3.988-3.182 15.931-17.548 19.446-23.391.595-.99 1.842-2.977 2.771-4.415a70.559 70.559 0 0 0 3.09-5.4 500.149 500.149 0 0 1 2.027-3.985c3.262-6.27 7.06-16.686 9.845-27 1.892-7.009 3.619-22.277 3.62-32.012l.001-6.613 2.9-2.536a241.24 241.24 0 0 0 6.244-5.724c3.86-3.68 3.746-3.705 5.089 1.127M216.136 184.9c3.753 2.891 11.029 9.633 10.798 10.007-.157.254-3.199.33-8.39.211-9.134-.211-8.86-.32-6.741 2.689a223.82 223.82 0 0 1 2.361 3.422c.526.787 2.235 3.115 3.796 5.175 1.562 2.06 2.84 3.9 2.84 4.088 0 .189-2.833 3.08-6.296 6.426a3306.833 3306.833 0 0 0-10.086 9.782c-4.643 4.534-3.813 4.623-9.341-1-16.501-16.786-14.954-14.464-12.926-19.407 7.541-18.386 9.235-22.241 9.849-22.423.33-.097 5.516-.198 11.524-.224l10.924-.046 1.688 1.3m-85.825 27.051c1.259.633 3.729 1.744 5.489 2.469 1.76.724 3.56 1.546 4 1.825.44.279 2.261 1.131 4.047 1.893 1.786.763 4.576 2.016 6.2 2.785 3.586 1.698 13.614 6.349 20.153 9.346a5783.1 5783.1 0 0 1 18.8 8.658c8.758 4.052 11.062 5.073 11.448 5.073.391 0 6.98-2.935 12.364-5.507a720.07 720.07 0 0 1 8.188-3.82c10.938-5.017 15.862-7.306 20.6-9.573 2.75-1.316 5.717-2.649 6.593-2.962.877-.312 1.957-.806 2.4-1.096.444-.29 2.157-1.117 3.807-1.839 1.65-.721 4.561-2.08 6.469-3.02 1.908-.94 3.888-1.835 4.4-1.989.512-.153 2.342-.989 4.067-1.858 4.746-2.39 4.695-1.725-.173 2.25-.53.432-3.303 2.749-6.163 5.148-4.316 3.621-5.982 4.735-9.8 6.555l-8.709 4.152c-2.261 1.077-4.216 1.959-4.346 1.959-.131 0-2.241.969-4.691 2.152-9.749 4.712-22.95 10.914-25.954 12.193-2.516 1.072-2.716.726 3.958 6.866 6.562 6.038 6.706 6.701.835 3.868-15.229-7.351-13.098-6.85-18.394-4.321-10.02 4.785-13.947 6.527-14.182 6.292-.139-.139 1.533-1.916 3.715-3.95 8.337-7.771 7.968-7.378 7.476-7.969-.251-.304-1.144-.791-1.983-1.083-.839-.292-3.325-1.39-5.525-2.44s-6.79-3.202-10.2-4.784a770.286 770.286 0 0 1-10.261-4.849c-2.234-1.086-4.19-1.975-4.348-1.975-.157 0-1.929-.796-3.938-1.768a2384.16 2384.16 0 0 0-8.653-4.16c-4.384-2.097-5.789-3.044-11.4-7.682-10.593-8.757-11.015-9.216-6.289-6.839"/>
    <path d="M181 59.841c-7.418.572-19.971 2.808-25.931 4.62a825.644 825.644 0 0 1-7.669 2.297c-4.854 1.406-19.498 8.306-24.6 11.591-1.21.779-2.818 1.757-3.573 2.174-.756.416-2.016 1.252-2.8 1.858a491.12 491.12 0 0 1-5.272 3.946c-9.506 7.037-19.323 17.02-26.755 27.207-1.65 2.262-3.339 4.687-3.752 5.389a64.11 64.11 0 0 1-1.844 2.877c-1.651 2.42-6.404 11.286-6.404 11.946 0 .345 1.245 1.098 3.072 1.858 1.689.704 4.463 1.98 6.163 2.837 1.7.858 3.195 1.559 3.322 1.559.127 0 2.323 1.001 4.878 2.225 2.556 1.224 4.723 2.151 4.815 2.058.092-.092 1.24-1.858 2.552-3.925 9.43-14.864 20.567-26.863 34.57-37.249 1.995-1.48 4.438-3.174 5.428-3.764.99-.591 3.001-1.849 4.469-2.797 1.468-.948 3.782-2.263 5.142-2.922 1.361-.659 2.68-1.363 2.931-1.564.252-.201 1.808-.945 3.458-1.654a597.55 597.55 0 0 0 6.104-2.673c2.864-1.277 11.464-4.168 16.696-5.614 18.71-5.169 47.427-5.253 65.4-.192 6.505 1.831 12.632 3.855 16 5.283 7.055 2.991 10.414 4.511 11.4 5.158.55.361 1.72.979 2.6 1.374 2.375 1.065 10.277 6.052 14.526 9.168 4.319 3.167 5.572 3.798 4.078 2.052-2.353-2.749-13.601-13.75-15.726-15.382-7.341-5.636-10.635-8.056-11.909-8.749-.787-.428-2.497-1.481-3.8-2.339-2.7-1.778-13.053-7.294-13.69-7.294-.231 0-1.739-.6-3.35-1.333-7.156-3.255-17.82-6.502-25.919-7.891-10.22-1.752-12.9-2.007-22.61-2.146-5.5-.079-10.9-.074-12 .011M6.756 109.513c.334.617 5.455 5.547 15.234 14.667a536.5 536.5 0 0 1 7.321 7c4.251 4.152 6.078 5.24 18.118 10.786 9.231 4.252 22.118 10.42 28.971 13.865 1.43.719 4.58 2.15 7 3.179 4.306 1.831 5.527 2.39 14.306 6.55 2.369 1.122 4.418 2.04 4.555 2.04.136 0 2.249.976 4.694 2.17A797.752 797.752 0 0 0 118 175.005c3.63 1.686 8.04 3.751 9.8 4.59 1.76.839 5.63 2.643 8.6 4.01a860.67 860.67 0 0 1 9.022 4.217c10.778 5.153 13.19 6.096 11.354 4.439-.518-.469-1.885-1.736-10.176-9.442l-8.4-7.8c-3.3-3.063-7.066-6.602-8.369-7.865-1.304-1.262-3.104-2.604-4-2.98-1.615-.679-11.398-5.225-17.692-8.222-1.793-.853-3.389-1.552-3.546-1.552-.157 0-2.379-1.02-4.939-2.266C83.606 144.321 74.447 140 73.932 140c-.233 0-1.078-.344-1.878-.764-.799-.42-2.984-1.432-4.854-2.248-1.87-.816-4.75-2.119-6.4-2.895-1.65-.777-4.17-1.938-5.6-2.58a310.35 310.35 0 0 1-5.4-2.506c-5.192-2.481-18.538-8.668-30.3-14.048a889.462 889.462 0 0 1-9.007-4.188c-2.873-1.361-3.996-1.739-3.737-1.258m287.245-.056c.001.189 1.244 2.053 2.763 4.143 3.132 4.309 8.253 12.412 9.733 15.4.545 1.1 1.649 3.305 2.453 4.901.804 1.596 1.831 3.887 2.282 5.092 1.054 2.817.932 2.778 4.378 1.376 5.041-2.051 5.493-.768-5.151-14.586-3.236-4.201-16.462-17.321-16.458-16.326m95.399 1.948c-5.466 2.65-12.197 5.795-12.401 5.795-.114 0-2.051.877-4.303 1.95-4.36 2.076-12.112 5.679-20.296 9.433a674.744 674.744 0 0 0-9.895 4.655c-2.692 1.299-5.068 2.362-5.28 2.362-.211 0-2.695 1.125-5.52 2.5-2.826 1.375-6.03 2.883-7.121 3.351-1.091.468-3.244 1.396-4.784 2.062-1.54.666-3.204 1.33-3.698 1.475-.493.146-1.133.5-1.421.788-.546.546-3.904 2.195-12.181 5.982-10.916 4.995-14.971 6.863-20.7 9.536-3.3 1.54-6.81 3.169-7.8 3.621-2.458 1.123-1.655.415-20.774 18.307-13.331 12.475-12.977 12.042-7.826 9.578 1.76-.842 5.857-2.806 9.104-4.365 3.248-1.559 6.013-2.835 6.146-2.835.132 0 2.065-.879 4.295-1.952 8.986-4.327 12.666-6.048 12.933-6.048.153 0 2.629-1.154 5.501-2.564a560.537 560.537 0 0 1 10.621-5.05c7.112-3.274 9.004-4.161 16.6-7.788 3.52-1.681 7.204-3.333 8.187-3.672.982-.339 3.412-1.426 5.4-2.416 9.42-4.691 27.758-13.407 32.613-15.502 6.512-2.809 7.729-3.632 14.225-9.621 3.506-3.233 7.105-6.622 7.996-7.532 1.984-2.026 10.691-10.147 12.479-11.64 2.544-2.125 1.755-2.279-2.1-.41M62.033 162.063c3.612 3.555 9.921 9.548 14.021 13.319 8.14 7.486 7.112 6.829 20.346 13.025l9.4 4.402 9.8 4.589c3.63 1.7 8.13 3.819 10 4.71 1.87.89 4.39 2.057 5.6 2.591 1.21.535 3.82 1.746 5.8 2.69 1.98.945 6.21 2.936 9.4 4.424 3.19 1.488 7.42 3.483 9.4 4.432 1.98.95 6.39 3.009 9.8 4.576 3.41 1.567 8 3.718 10.2 4.779 11.438 5.516 18.205 8.521 18.192 8.08-.004-.154-1.383-1.54-3.064-3.08s-3.882-3.627-4.892-4.638c-1.01-1.011-5.419-5.151-9.798-9.2a2676.61 2676.61 0 0 1-9.8-9.094c-1.011-.953-3.008-2.274-4.438-2.935-1.43-.661-4.22-1.982-6.2-2.935-6.715-3.234-14.833-6.998-15.094-6.998-.235 0-3.123-1.344-13.106-6.098-1.87-.89-4.658-2.14-6.196-2.777-1.538-.638-3.158-1.393-3.6-1.679-.442-.287-2.334-1.198-4.204-2.025-1.87-.828-4.84-2.189-6.6-3.026-1.76-.837-5.99-2.807-9.4-4.379-3.41-1.571-8-3.727-10.2-4.79-8.196-3.96-12.84-6.129-14.2-6.633-.77-.284-3.105-1.361-5.189-2.392s-4.964-2.317-6.4-2.858c-1.436-.54-3.206-1.333-3.934-1.763-2.835-1.672-1.97-.543 4.356 5.683m279.567-4.772c-.99.462-3.6 1.684-5.8 2.714a247.45 247.45 0 0 1-7.6 3.385c-1.98.831-4.95 2.193-6.6 3.027-4.649 2.35-12.294 5.983-12.591 5.983-.147 0-2.279.974-4.738 2.164a659.047 659.047 0 0 1-9.671 4.554c-19.003 8.734-26.27 12.101-30.89 14.315-2.029.972-3.784 1.767-3.9 1.767-.115 0-2.414 1.08-5.109 2.4-2.694 1.32-5.04 2.4-5.212 2.4-.172 0-2.513 1.057-5.201 2.349-2.689 1.291-5.968 2.836-7.288 3.431-1.651.745-3.586 2.202-6.2 4.669l-5.797 5.468c-1.477 1.392-15.354 14.22-19.176 17.727-.908.833.262.715 2.204-.222 1.165-.562 2.259-1.022 2.429-1.022.171 0 2.402-.99 4.958-2.2 2.555-1.21 4.745-2.2 4.866-2.2.12 0 2.437-1.08 5.148-2.4 2.711-1.32 5.034-2.4 5.161-2.4.127 0 2.251-.971 4.719-2.158a927.738 927.738 0 0 1 10.288-4.84 931.45 931.45 0 0 0 9.8-4.604c2.2-1.056 6.25-2.95 9-4.207a782.332 782.332 0 0 0 10.33-4.839c2.932-1.403 5.431-2.552 5.555-2.552.123 0 2.225-.978 4.67-2.174A794.279 794.279 0 0 1 296 192.578c5.981-2.784 9.488-4.436 16.6-7.82 1.443-.686 3.915-2.515 6.2-4.586 2.09-1.895 5.024-4.554 6.52-5.908 1.495-1.355 4.37-4.084 6.387-6.064a454.664 454.664 0 0 1 7.481-7.141c3.216-2.988 4.856-4.743 4.332-4.634-.066.013-.93.403-1.92.866M61.2 168.512c0 .098-.185 1.148-.412 2.333-2.848 14.899-1.528 40.117 2.864 54.695 4.061 13.481 9.644 26.367 14.755 34.06.804 1.21 1.806 2.78 2.227 3.488.971 1.633 5.876 8.451 6.843 9.512.401.44 1.658 1.97 2.794 3.4 2.301 2.898 14.875 15.387 15.182 15.08.108-.108-1.39-2.469-3.329-5.247-6.044-8.662-10.132-15.674-12.713-21.806a217.93 217.93 0 0 0-1.969-4.517c-.525-1.161-1.693-4.329-2.595-7.04-3.422-10.289-4.093-12.954-5.406-21.47-.34-2.2-.843-5.44-1.12-7.2-.883-5.63-.635-24.87.409-31.6.477-3.08.869-5.985.869-6.456.001-.604-2.603-3.261-8.817-9-8.065-7.449-9.582-8.752-9.582-8.232m269.944 6.603a241.24 241.24 0 0 1-6.244 5.724l-2.9 2.536-.001 6.613c-.001 9.735-1.728 25.003-3.62 32.012-2.785 10.314-6.583 20.73-9.845 27-.343.66-1.255 2.453-2.027 3.985a70.559 70.559 0 0 1-3.09 5.4 201.148 201.148 0 0 0-2.771 4.415c-3.515 5.843-15.458 20.209-19.446 23.391-.55.439-2.186 1.88-3.636 3.203a173.873 173.873 0 0 1-4.699 4.127c-4.427 3.694-15.431 11.006-19.539 12.984-1.141.549-2.671 1.364-3.4 1.812-2.196 1.349-12.194 5.499-17.526 7.275-9.436 3.143-12.738 3.895-25.8 5.878-6.037.917-25.103 1.04-30.8.199-7.586-1.12-15.311-2.529-18-3.282-5.212-1.461-14.793-4.669-17.112-5.73a204.752 204.752 0 0 0-4.715-2.068c-2.968-1.25-12.252-6.189-14.51-7.72-.915-.62-2.743-1.832-4.063-2.693-1.32-.861-3.718-2.53-5.329-3.708-4.734-3.463-3.818-2.15 3.78 5.414 8.641 8.604 16.021 14.645 22.349 18.297 1.1.635 2.54 1.551 3.2 2.036 3.836 2.82 18.154 9.388 26 11.926 9.777 3.163 17.378 4.794 28.278 6.068 43.77 5.115 92.064-15.8 117.785-51.009 1.044-1.43 2.675-3.64 3.623-4.912.949-1.271 2.045-2.891 2.437-3.6.392-.708 1.349-2.278 2.128-3.488 6.49-10.08 14.174-29.851 16.169-41.6 3.261-19.208 3.408-31.331.588-48.555-1.177-7.192-2.817-14.014-3.543-14.74-.237-.237-1.621.808-3.721 2.81M192 183.87c-.614.182-2.308 4.037-9.849 22.423-1.861 4.536-1.974 4.219 3.477 9.781 12.409 12.66 14.099 14.326 14.535 14.326.256 0 2.171-1.665 4.255-3.7s6.623-6.437 10.086-9.782c3.463-3.346 6.296-6.237 6.296-6.426 0-.188-1.278-2.028-2.84-4.088-1.561-2.06-3.27-4.388-3.796-5.175a223.82 223.82 0 0 0-2.361-3.422c-2.119-3.009-2.393-2.9 6.741-2.689 5.191.119 8.233.043 8.39-.211.231-.374-7.045-7.116-10.798-10.007l-1.688-1.3-10.924.046c-6.008.026-11.194.127-11.524.224m-63.352 28.28c9.863 8.576 14.473 11.988 19.352 14.322a2384.16 2384.16 0 0 1 8.653 4.16c2.009.972 3.781 1.768 3.938 1.768.158 0 2.114.889 4.348 1.975a770.286 770.286 0 0 0 10.261 4.849c3.41 1.582 8 3.734 10.2 4.784 2.2 1.05 4.686 2.148 5.525 2.44.839.292 1.732.779 1.983 1.083.492.591.861.198-7.476 7.969-2.182 2.034-3.854 3.811-3.715 3.95.235.235 4.162-1.507 14.182-6.292 5.296-2.529 3.165-3.03 18.394 4.321 5.871 2.833 5.727 2.17-.835-3.868-6.674-6.14-6.474-5.794-3.958-6.866 3.004-1.279 16.205-7.481 25.954-12.193 2.45-1.183 4.56-2.152 4.691-2.152.13 0 2.085-.882 4.346-1.959l8.709-4.152c3.818-1.82 5.484-2.934 9.8-6.555a1241.26 1241.26 0 0 1 6.163-5.148c4.868-3.975 4.919-4.64.173-2.25-1.725.869-3.555 1.705-4.067 1.858-.512.154-2.492 1.049-4.4 1.989-1.908.94-4.819 2.299-6.469 3.02-1.65.722-3.363 1.549-3.807 1.839-.443.29-1.523.784-2.4 1.096-.876.313-3.843 1.646-6.593 2.962-4.738 2.267-9.662 4.556-20.6 9.573a720.07 720.07 0 0 0-8.188 3.82c-5.384 2.572-11.973 5.507-12.364 5.507-.386 0-2.69-1.021-11.448-5.073a5783.1 5783.1 0 0 0-18.8-8.658c-6.539-2.997-16.567-7.648-20.153-9.346a214.267 214.267 0 0 0-6.2-2.785c-1.786-.762-3.607-1.614-4.047-1.893-.44-.279-2.24-1.101-4-1.825-1.76-.725-4.23-1.836-5.489-2.469-3.02-1.519-3.564-1.454-1.663.199" fill="#c5a764"/>
</svg>
